<svg width="24" height="20" viewBox="0 0 24 20" fill="none" xmlns="http://www.w3.org/2000/svg">
<path d="M3.83331 15.8333C3.83331 16.4522 4.07915 17.0457 4.51673 17.4832C4.95432 17.9208 5.54781 18.1667 6.16665 18.1667C6.78548 18.1667 7.37898 17.9208 7.81656 17.4832C8.25415 17.0457 8.49998 16.4522 8.49998 15.8333C8.49998 15.2145 8.25415 14.621 7.81656 14.1834C7.37898 13.7458 6.78548 13.5 6.16665 13.5C5.54781 13.5 4.95432 13.7458 4.51673 14.1834C4.07915 14.621 3.83331 15.2145 3.83331 15.8333ZM15.5 15.8333C15.5 16.4522 15.7458 17.0457 16.1834 17.4832C16.621 17.9208 17.2145 18.1667 17.8333 18.1667C18.4522 18.1667 19.0456 17.9208 19.4832 17.4832C19.9208 17.0457 20.1666 16.4522 20.1666 15.8333C20.1666 15.2145 19.9208 14.621 19.4832 14.1834C19.0456 13.7458 18.4522 13.5 17.8333 13.5C17.2145 13.5 16.621 13.7458 16.1834 14.1834C15.7458 14.621 15.5 15.2145 15.5 15.8333Z" stroke="#D92222" stroke-width="2.33333" stroke-linecap="round" stroke-linejoin="round"/>
<path d="M3.83333 15.8333H1.5V2.99992C1.5 2.6905 1.62292 2.39375 1.84171 2.17496C2.0605 1.95617 2.35725 1.83325 2.66667 1.83325H13.1667V15.8333M8.5 15.8333H15.5M20.1667 15.8333H22.5V8.83325M22.5 8.83325H13.1667M22.5 8.83325L19 2.99992H13.1667" stroke="#D92222" stroke-width="2.33333" stroke-linecap="round" stroke-linejoin="round"/>
</svg>
