<svg width="22" height="24" viewBox="0 0 22 24" fill="none" xmlns="http://www.w3.org/2000/svg">
<path d="M4 4.41667C4 5.19021 4.7375 5.93208 6.05025 6.47906C7.36301 7.02604 9.14348 7.33333 11 7.33333C12.8565 7.33333 14.637 7.02604 15.9497 6.47906C17.2625 5.93208 18 5.19021 18 4.41667C18 3.64312 17.2625 2.90125 15.9497 2.35427C14.637 1.80729 12.8565 1.5 11 1.5C9.14348 1.5 7.36301 1.80729 6.05025 2.35427C4.7375 2.90125 4 3.64312 4 4.41667Z" stroke="#D92222" stroke-width="2.33333" stroke-linecap="round" stroke-linejoin="round"/>
<path d="M18 4.41675V9.81375C18.3387 9.66036 18.7192 9.62579 19.08 9.71562C19.4407 9.80545 19.7606 10.0144 19.9878 10.3087C20.215 10.603 20.3362 10.9654 20.3318 11.3371C20.3274 11.7089 20.1976 12.0683 19.9635 12.3571L19.8503 12.4831L18 14.3334V19.0001C18 20.8784 15.0367 22.4126 11.3208 22.5001H11C7.13367 22.5001 4 20.9332 4 19.0001V16.6667L2.14967 14.8164C1.87601 14.5431 1.70708 14.1824 1.67237 13.7972C1.63766 13.412 1.73939 13.0269 1.95978 12.7091C2.18018 12.3913 2.50522 12.161 2.87814 12.0585C3.25106 11.956 3.64813 11.9877 4 12.1482V4.41675M8.66667 12.5834V14.3334M13.3333 16.6667V17.8334" stroke="#D92222" stroke-width="2.33333" stroke-linecap="round" stroke-linejoin="round"/>
</svg>
