<svg width="24" height="24" viewBox="0 0 24 24" fill="none" xmlns="http://www.w3.org/2000/svg">
<path d="M9.53133 4.85183C10.0215 4.36408 10.6452 4.03247 11.3237 3.89885C12.0022 3.76524 12.7051 3.83561 13.3436 4.10108C13.9822 4.36656 14.5278 4.81524 14.9115 5.3905C15.2953 5.96575 15.5001 6.64181 15.5 7.33333V8.5M13.1667 8.5H16.6667C17.3615 9.54135 17.7644 10.75 17.8333 12V13.1667H22.5M17.4857 17.4892C17.0188 18.7803 16.1114 19.8653 14.9233 20.5534C13.7353 21.2414 12.3426 21.4884 10.9903 21.2507C9.63812 21.0131 8.41305 20.3061 7.53073 19.2542C6.64841 18.2023 6.16539 16.8729 6.16667 15.5V12C6.23558 10.75 6.63847 9.54135 7.33333 8.5H8.5M1.5 13.1667H6.16667M12 21.3333V14.3333M2.66667 20.1667L6.575 17.8333M2.66667 6.16667L7.04167 8.96667M21.3333 6.16667L16.9583 8.96667M1.5 1.5L22.5 22.5" stroke="#D92222" stroke-width="2.33333" stroke-linecap="round" stroke-linejoin="round"/>
</svg>
