<svg width="22" height="22" viewBox="0 0 22 22" fill="none" xmlns="http://www.w3.org/2000/svg">
<path d="M18 15.6667C18.6188 15.6667 19.2123 15.9126 19.6499 16.3502C20.0875 16.7878 20.3333 17.3812 20.3333 18.0001C20.3333 18.6189 20.0875 19.2124 19.6499 19.65C19.2123 20.0876 18.6188 20.3334 18 20.3334C17.3812 20.3334 16.7877 20.0876 16.3501 19.65C15.9125 19.2124 15.6667 18.6189 15.6667 18.0001M18 15.6667C17.3812 15.6667 16.7877 15.9126 16.3501 16.3502C15.9125 16.7878 15.6667 17.3812 15.6667 18.0001M18 15.6667V6.33341M15.6667 18.0001H6.33332M6.33332 18.0001C6.33332 17.3812 6.08749 16.7878 5.64991 16.3502C5.21232 15.9126 4.61883 15.6667 3.99999 15.6667M6.33332 18.0001C6.33332 18.6189 6.08749 19.2124 5.64991 19.65C5.21232 20.0876 4.61883 20.3334 3.99999 20.3334C3.38115 20.3334 2.78766 20.0876 2.35007 19.65C1.91249 19.2124 1.66666 18.6189 1.66666 18.0001C1.66666 17.3812 1.91249 16.7878 2.35007 16.3502C2.78766 15.9126 3.38115 15.6667 3.99999 15.6667M3.99999 15.6667V6.33341M6.33332 4.00008C6.33332 3.38124 6.08749 2.78775 5.64991 2.35017C5.21232 1.91258 4.61883 1.66675 3.99999 1.66675C3.38115 1.66675 2.78766 1.91258 2.35007 2.35017C1.91249 2.78775 1.66666 3.38124 1.66666 4.00008C1.66666 4.61892 1.91249 5.21241 2.35007 5.65C2.78766 6.08758 3.38115 6.33341 3.99999 6.33341M6.33332 4.00008C6.33332 4.61892 6.08749 5.21241 5.64991 5.65C5.21232 6.08758 4.61883 6.33341 3.99999 6.33341M6.33332 4.00008H15.6667M15.6667 4.00008C15.6667 3.38124 15.9125 2.78775 16.3501 2.35017C16.7877 1.91258 17.3812 1.66675 18 1.66675C18.6188 1.66675 19.2123 1.91258 19.6499 2.35017C20.0875 2.78775 20.3333 3.38124 20.3333 4.00008C20.3333 4.61892 20.0875 5.21241 19.6499 5.65C19.2123 6.08758 18.6188 6.33341 18 6.33341M15.6667 4.00008C15.6667 4.61892 15.9125 5.21241 16.3501 5.65C16.7877 6.08758 17.3812 6.33341 18 6.33341M5.74999 5.75008L9.24999 9.25008M12.75 12.7501L16.25 16.2501M16.25 5.75008L12.75 9.25008M9.24999 12.7501L5.74999 16.2501M13.3333 11.0001C13.3333 10.3812 13.0875 9.78775 12.6499 9.35017C12.2123 8.91258 11.6188 8.66675 11 8.66675C10.3812 8.66675 9.78766 8.91258 9.35007 9.35017C8.91249 9.78775 8.66666 10.3812 8.66666 11.0001C8.66666 11.6189 8.91249 12.2124 9.35007 12.65C9.78766 13.0876 10.3812 13.3334 11 13.3334C11.6188 13.3334 12.2123 13.0876 12.6499 12.65C13.0875 12.2124 13.3333 11.6189 13.3333 11.0001Z" stroke="#D92222" stroke-width="2.33333" stroke-linecap="round" stroke-linejoin="round"/>
</svg>
