<svg width="22" height="25" viewBox="0 0 22 25" fill="none" xmlns="http://www.w3.org/2000/svg">
<path d="M7.5 10.8335C7.5 11.7618 7.86875 12.652 8.52513 13.3084C9.1815 13.9647 10.0717 14.3335 11 14.3335C11.9283 14.3335 12.8185 13.9647 13.4749 13.3084C14.1313 12.652 14.5 11.7618 14.5 10.8335C14.5 9.90524 14.1313 9.015 13.4749 8.35862C12.8185 7.70224 11.9283 7.3335 11 7.3335C10.0717 7.3335 9.1815 7.70224 8.52513 8.35862C7.86875 9.015 7.5 9.90524 7.5 10.8335Z" stroke="white" stroke-width="2.33333" stroke-linecap="round" stroke-linejoin="round"/>
<path d="M17.5999 17.4333L12.6497 22.3835C12.2122 22.8206 11.619 23.0661 11.0006 23.0661C10.3822 23.0661 9.78904 22.8206 9.35152 22.3835L4.40019 17.4333C3.09495 16.128 2.20608 14.465 1.84599 12.6545C1.4859 10.844 1.67076 8.96741 2.37719 7.262C3.08363 5.55658 4.2799 4.09894 5.81475 3.07341C7.3496 2.04787 9.15409 1.50049 11 1.50049C12.846 1.50049 14.6504 2.04787 16.1853 3.07341C17.7201 4.09894 18.9164 5.55658 19.6229 7.262C20.3293 8.96741 20.5141 10.844 20.1541 12.6545C19.794 14.465 18.9051 16.128 17.5999 17.4333Z" stroke="white" stroke-width="2.33333" stroke-linecap="round" stroke-linejoin="round"/>
</svg>
