<svg width="21" height="24" viewBox="0 0 21 24" fill="none" xmlns="http://www.w3.org/2000/svg">
<path d="M2 22.5V20.1667C2 18.929 2.49167 17.742 3.36683 16.8668C4.242 15.9917 5.42899 15.5 6.66667 15.5H11.3333M12.5 20.1667L14.8333 22.5L19.5 17.8333M4.33333 6.16667C4.33333 7.40434 4.825 8.59133 5.70017 9.4665C6.57534 10.3417 7.76232 10.8333 9 10.8333C10.2377 10.8333 11.4247 10.3417 12.2998 9.4665C13.175 8.59133 13.6667 7.40434 13.6667 6.16667C13.6667 4.92899 13.175 3.742 12.2998 2.86683C11.4247 1.99167 10.2377 1.5 9 1.5C7.76232 1.5 6.57534 1.99167 5.70017 2.86683C4.825 3.742 4.33333 4.92899 4.33333 6.16667Z" stroke="#D92222" stroke-width="2.33333" stroke-linecap="round" stroke-linejoin="round"/>
</svg>
