<svg width="28" height="28" viewBox="0 0 28 28" fill="none" xmlns="http://www.w3.org/2000/svg">
<path d="M23.92 15.3335C23.6267 15.3335 23.32 15.2402 23.0267 15.1735C22.4327 15.0426 21.8489 14.8688 21.28 14.6535C20.6615 14.4285 19.9815 14.4401 19.3711 14.6863C18.7606 14.9324 18.2628 15.3957 17.9733 15.9868L17.68 16.5868C16.3813 15.8644 15.188 14.9671 14.1333 13.9201C13.0864 12.8655 12.1891 11.6721 11.4667 10.3735L12.0267 10.0001C12.6178 9.7107 13.0811 9.21286 13.3272 8.6024C13.5734 7.99195 13.585 7.31203 13.36 6.69348C13.1483 6.12338 12.9746 5.53988 12.84 4.94682C12.7733 4.65348 12.72 4.34682 12.68 4.04015C12.5181 3.10098 12.0262 2.25047 11.2928 1.6418C10.5595 1.03313 9.63294 0.706295 8.68001 0.72015H4.68001C4.10539 0.714754 3.53635 0.833234 3.01163 1.06752C2.4869 1.30181 2.01883 1.64641 1.63925 2.07786C1.25968 2.50931 0.977525 3.01747 0.811996 3.56777C0.646468 4.11806 0.601451 4.69756 0.680012 5.26682C1.39033 10.8527 3.94138 16.0427 7.93022 20.017C11.919 23.9913 17.1183 26.5235 22.7067 27.2135H23.2133C24.1966 27.2149 25.1459 26.8542 25.88 26.2001C26.3018 25.8229 26.6388 25.3604 26.8686 24.8432C27.0985 24.3261 27.216 23.7661 27.2133 23.2001V19.2001C27.197 18.274 26.8598 17.3822 26.2591 16.677C25.6585 15.9719 24.8318 15.497 23.92 15.3335ZM24.5867 23.3335C24.5864 23.5228 24.5459 23.7099 24.4677 23.8823C24.3896 24.0547 24.2756 24.2085 24.1333 24.3335C23.9848 24.4628 23.8106 24.5594 23.6222 24.6168C23.4338 24.6743 23.2354 24.6913 23.04 24.6668C18.0465 24.0266 13.4083 21.7421 9.85697 18.1739C6.30561 14.6056 4.04323 9.9566 3.42668 4.96015C3.40546 4.76484 3.42406 4.56726 3.48135 4.37934C3.53864 4.19142 3.63344 4.01707 3.76001 3.86682C3.88496 3.72459 4.03876 3.6106 4.21118 3.53244C4.38361 3.45427 4.5707 3.41372 4.76001 3.41348H8.76001C9.07007 3.40658 9.37284 3.50799 9.6162 3.70024C9.85956 3.8925 10.0283 4.16358 10.0933 4.46682C10.1467 4.83126 10.2133 5.19126 10.2933 5.54682C10.4474 6.24968 10.6524 6.94039 10.9067 7.61348L9.04001 8.48015C8.88041 8.55338 8.73684 8.65741 8.61756 8.78628C8.49827 8.91514 8.40561 9.0663 8.34491 9.23108C8.2842 9.39585 8.25664 9.57099 8.26381 9.74645C8.27098 9.9219 8.31273 10.0942 8.38668 10.2535C10.3056 14.3638 13.6097 17.6679 17.72 19.5868C18.0446 19.7202 18.4087 19.7202 18.7333 19.5868C18.8996 19.5273 19.0524 19.4354 19.1829 19.3164C19.3134 19.1974 19.4189 19.0536 19.4933 18.8935L20.32 17.0268C21.0093 17.2733 21.7128 17.4781 22.4267 17.6402C22.7822 17.7201 23.1422 17.7868 23.5067 17.8402C23.8099 17.9052 24.081 18.0739 24.2733 18.3173C24.4655 18.5607 24.5669 18.8634 24.56 19.1735L24.5867 23.3335Z" fill="white"/>
</svg>
