<svg width="18" height="17" viewBox="0 0 18 17" fill="none" xmlns="http://www.w3.org/2000/svg">
<path d="M6.18226 5.50494L1.39726 6.19869L1.31251 6.21594C1.18421 6.25 1.06725 6.3175 0.973577 6.41154C0.8799 6.50559 0.81286 6.62281 0.779304 6.75124C0.745748 6.87966 0.746878 7.0147 0.782578 7.14255C0.818278 7.2704 0.88727 7.38648 0.982507 7.47894L4.44901 10.8532L3.63151 15.6194L3.62176 15.7019C3.6139 15.8346 3.64146 15.967 3.70159 16.0856C3.76173 16.2041 3.8523 16.3045 3.96401 16.3766C4.07572 16.4486 4.20457 16.4897 4.33737 16.4955C4.47016 16.5014 4.60213 16.4718 4.71976 16.4099L8.99926 14.1599L13.269 16.4099L13.344 16.4444C13.4678 16.4932 13.6023 16.5082 13.7338 16.4878C13.8653 16.4674 13.989 16.4124 14.0922 16.3284C14.1954 16.2444 14.2744 16.1345 14.3211 16.0099C14.3678 15.8853 14.3806 15.7506 14.358 15.6194L13.5398 10.8532L17.0078 7.47819L17.0663 7.41444C17.1498 7.31152 17.2046 7.18828 17.225 7.05729C17.2455 6.92629 17.2308 6.79223 17.1826 6.66874C17.1343 6.54525 17.0542 6.43677 16.9504 6.35433C16.8465 6.27189 16.7227 6.21844 16.5915 6.19944L11.8065 5.50494L9.66751 1.16994C9.60561 1.04434 9.5098 0.938578 9.3909 0.86462C9.272 0.790662 9.13478 0.751465 8.99476 0.751465C8.85474 0.751465 8.71751 0.790662 8.59862 0.86462C8.47972 0.938578 8.3839 1.04434 8.32201 1.16994L6.18226 5.50494Z" fill="#D92222"/>
</svg>
