<svg width="24" height="24" viewBox="0 0 24 24" fill="none" xmlns="http://www.w3.org/2000/svg">
<path d="M11.3163 9.66666L2.70284 18.321C2.47458 18.5477 2.29342 18.8174 2.16981 19.1144C2.04619 19.4115 1.98254 19.73 1.98254 20.0517C1.98254 20.3735 2.04619 20.692 2.16981 20.9891C2.29342 21.2861 2.47458 21.5558 2.70284 21.7825C3.16411 22.2413 3.78825 22.4989 4.43884 22.4989C5.08943 22.4989 5.71357 22.2413 6.17484 21.7825L14.8163 13.1667M19.1412 15.8418L22.1582 12.8248C22.3769 12.606 22.4998 12.3094 22.4998 12C22.4998 11.6906 22.3769 11.3939 22.1582 11.1752L13.3078 2.32483C13.0891 2.10611 12.7924 1.98325 12.483 1.98325C12.1736 1.98325 11.877 2.10611 11.6582 2.32483L8.64117 5.34183C8.42246 5.56061 8.29959 5.8573 8.29959 6.16666C8.29959 6.47602 8.42246 6.77271 8.64117 6.9915L17.4915 15.8418C17.7103 16.0605 18.007 16.1834 18.3163 16.1834C18.6257 16.1834 18.9224 16.0605 19.1412 15.8418Z" stroke="#D92222" stroke-width="2.33333" stroke-linecap="round" stroke-linejoin="round"/>
</svg>
