<?xml version="1.0" encoding="utf-8"?><svg viewBox="0 0 1024 1024" xmlns="http://www.w3.org/2000/svg" xmlns:xlink="http://www.w3.org/1999/xlink"><style>:root>svg{display:none}:root>svg:target{display:block}</style><svg viewBox="0 0 22 24" id="Group" xmlns="http://www.w3.org/2000/svg"><path d="M4 4.417c0 .773.737 1.515 2.05 2.062 1.313.547 3.093.854 4.95.854 1.857 0 3.637-.307 4.95-.854C17.263 5.932 18 5.19 18 4.417c0-.774-.738-1.516-2.05-2.063C14.637 1.807 12.857 1.5 11 1.5c-1.857 0-3.637.307-4.95.854C4.737 2.901 4 3.644 4 4.417z"/><path d="M18 4.417v5.397a1.65 1.65 0 011.963 2.543l-.113.126-1.85 1.85V19c0 1.878-2.963 3.413-6.68 3.5H11c-3.866 0-7-1.567-7-3.5v-2.333l-1.85-1.85A1.65 1.65 0 014 12.147v-7.73m4.667 8.166v1.75m4.666 2.334v1.166"/></svg><svg viewBox="0 0 24 24" id="Vector" xmlns="http://www.w3.org/2000/svg"><path d="M11.316 9.667L2.703 18.32a2.44 2.44 0 000 3.461 2.462 2.462 0 003.472 0l8.641-8.615m4.325 2.675l3.017-3.017a1.167 1.167 0 000-1.65l-8.85-8.85a1.166 1.166 0 00-1.65 0L8.641 5.342a1.167 1.167 0 000 1.65l8.85 8.85a1.167 1.167 0 001.65 0z"/></svg><svg viewBox="0 0 24 20" id="car" xmlns="http://www.w3.org/2000/svg"><path d="M3.833 15.833a2.333 2.333 0 104.666 0 2.333 2.333 0 00-4.666 0zm11.667 0a2.333 2.333 0 104.666 0 2.333 2.333 0 00-4.666 0z"/><path d="M3.833 15.833H1.5V3a1.167 1.167 0 011.167-1.167h10.5v14m-4.667 0h7m4.667 0H22.5v-7m0 0h-9.333m9.333 0L19 3h-5.833"/></svg><svg class="dsvg-icon" viewBox="0 0 1024 1024" id="chat" xmlns="http://www.w3.org/2000/svg"><path d="M919.192 976.84a42.62 42.62 0 01-21.919-6.088L712.178 860.077A560.958 560.958 0 01512 896.249c-274.681 0-498.162-192.982-498.162-430.19C13.838 228.85 237.318 35.867 512 35.867s498.162 192.982 498.162 430.19c0 104.642-42.952 203.638-121.662 281.822l70.38 168.683c7.195 17.27 2.6 37.251-11.376 49.567a42.708 42.708 0 01-28.312 10.71zM715.914 768.388a42.532 42.532 0 0121.92 6.09l91.108 54.437-31.495-75.444a43.7 43.7 0 0111.624-49.816c74.17-64.346 115.02-148.729 115.02-237.596 0-189.301-184.874-343.344-412.091-343.344S99.91 276.757 99.91 466.058c0 189.302 184.873 343.345 412.09 343.345 65.785 0 128.72-12.648 187.143-37.584a42.593 42.593 0 0116.771-3.432zm-454.96-298.233a56.32 56.32 0 0156.348-56.015 56.348 56.348 0 0155.794 56.597c0 31.135-24.908 56.43-55.794 56.569a56.32 56.32 0 01-56.32-55.988v-1.135zm186.479 0c0 31.966 25.71 57.898 57.399 57.898a57.648 57.648 0 0057.372-57.898 57.648 57.648 0 00-57.372-57.897 57.648 57.648 0 00-57.4 57.897zm186.506 0a56.32 56.32 0 0156.348-56.015 56.348 56.348 0 0155.794 56.597c0 31.135-24.908 56.43-55.794 56.569a56.32 56.32 0 01-56.348-56.016v-1.135z"/></svg><svg viewBox="0 0 17.837 17.837" id="check" xmlns="http://www.w3.org/2000/svg"><path d="M16.145 2.571a.7.7 0 00-.99 0L6.92 10.804l-4.241-4.27a.698.698 0 00-.989 0L.204 8.019a.703.703 0 000 .99l6.217 6.258a.704.704 0 00.99 0L17.63 5.047a.7.7 0 000-.994l-1.485-1.482z"/></svg><svg viewBox="0 0 24 24" id="hero" xmlns="http://www.w3.org/2000/svg"><path d="M9.531 4.852A3.5 3.5 0 0115.5 7.333V8.5m-2.333 0h3.5a7 7 0 011.166 3.5v1.167H22.5m-5.014 4.322A5.834 5.834 0 016.166 15.5V12a7 7 0 011.167-3.5H8.5m-7 4.667h4.667M12 21.333v-7m-9.333 5.834l3.908-2.334M2.667 6.167l4.375 2.8m14.291-2.8l-4.375 2.8M1.5 1.5l21 21"/></svg><svg viewBox="0 0 22 22" id="icon-1" xmlns="http://www.w3.org/2000/svg"><path d="M18 15.667A2.333 2.333 0 1115.667 18M18 15.667A2.333 2.333 0 0015.667 18M18 15.667V6.333M15.667 18H6.333m0 0A2.333 2.333 0 004 15.667M6.333 18A2.333 2.333 0 114 15.667m0 0V6.333M6.333 4A2.333 2.333 0 104 6.333M6.333 4A2.333 2.333 0 014 6.333M6.333 4h9.334m0 0A2.333 2.333 0 1118 6.333M15.667 4A2.333 2.333 0 0018 6.333M5.75 5.75l3.5 3.5m3.5 3.5l3.5 3.5m0-10.5l-3.5 3.5m-3.5 3.5l-3.5 3.5M13.333 11a2.333 2.333 0 10-4.666 0 2.333 2.333 0 004.666 0z"/></svg><svg viewBox="0 0 22 25" id="location" xmlns="http://www.w3.org/2000/svg"><path d="M7.5 10.834a3.5 3.5 0 107 0 3.5 3.5 0 00-7 0z"/><path d="M17.6 17.433l-4.95 4.95a2.333 2.333 0 01-3.298 0L4.4 17.434a9.333 9.333 0 1113.2 0z"/></svg><svg viewBox="0 0 28 22" id="mail" xmlns="http://www.w3.org/2000/svg"><path d="M23.333.333H4.667a4 4 0 00-4 4v13.334a4 4 0 004 4h18.666a4 4 0 004-4V4.333a4 4 0 00-4-4zM22.787 3l-7.84 7.84a1.334 1.334 0 01-1.894 0L5.213 3h17.574zm1.88 14.667A1.333 1.333 0 0123.333 19H4.667a1.333 1.333 0 01-1.334-1.333V4.88l7.84 7.84a4 4 0 005.654 0l7.84-7.84v12.787z"/></svg><svg viewBox="0 0 21 24" id="peaple" xmlns="http://www.w3.org/2000/svg"><path d="M2 22.5v-2.333A4.667 4.667 0 016.667 15.5h4.666m1.167 4.667l2.333 2.333 4.667-4.667M4.333 6.167a4.667 4.667 0 109.334 0 4.667 4.667 0 00-9.334 0z"/></svg><svg viewBox="0 0 28 28" id="phone" xmlns="http://www.w3.org/2000/svg"><path d="M23.92 15.334c-.293 0-.6-.094-.893-.16a12.59 12.59 0 01-1.747-.52 2.666 2.666 0 00-3.307 1.333l-.293.6a16.24 16.24 0 01-3.547-2.667 16.241 16.241 0 01-2.666-3.546l.56-.374a2.666 2.666 0 001.333-3.307 13.777 13.777 0 01-.52-1.746 9.88 9.88 0 01-.16-.907 4 4 0 00-4-3.32h-4a4 4 0 00-4 4.547 25.333 25.333 0 0022.027 21.947h.506A4 4 0 0025.88 26.2a3.998 3.998 0 001.333-3v-4a4 4 0 00-3.293-3.866zm.667 8a1.334 1.334 0 01-.454 1 1.4 1.4 0 01-1.093.333A22.666 22.666 0 013.427 4.96a1.453 1.453 0 01.333-1.093 1.333 1.333 0 011-.454h4a1.333 1.333 0 011.333 1.054c.054.364.12.724.2 1.08.154.703.36 1.393.614 2.066L9.04 8.48a1.333 1.333 0 00-.653 1.774 19.32 19.32 0 009.333 9.333c.325.133.689.133 1.013 0a1.334 1.334 0 00.76-.694l.827-1.866c.69.246 1.393.451 2.107.613.355.08.715.147 1.08.2a1.333 1.333 0 011.053 1.334l.027 4.16z"/></svg><svg viewBox="0 0 18 17" id="stars" xmlns="http://www.w3.org/2000/svg"><path d="M6.182 5.505l-4.785.694-.084.017a.75.75 0 00-.33 1.263l3.466 3.374-.817 4.766-.01.083a.75.75 0 001.098.708L9 14.16l4.269 2.25.075.034a.75.75 0 001.014-.825l-.818-4.766 3.468-3.375.058-.064a.75.75 0 00-.474-1.215l-4.785-.694-2.14-4.335a.75.75 0 00-1.345 0l-2.14 4.335z"/></svg><svg viewBox="0 0 24 24" id="telegram" xmlns="http://www.w3.org/2000/svg"><path fill-rule="evenodd" clip-rule="evenodd" d="M23.112 4.494c.318-1.55-1.205-2.837-2.68-2.267L2.342 9.216c-1.647.637-1.72 2.941-.117 3.682l3.94 1.818 1.873 6.559a1 1 0 001.67.432l2.886-2.887 4.043 3.033a2 2 0 003.16-1.198l3.315-16.16zM3.063 11.082l18.09-6.99-3.316 16.161L13.1 16.7a1 1 0 00-1.307.093l-1.236 1.236.371-2.043 7.28-7.279a1 1 0 00-1.204-1.575L6.95 12.876l-3.888-1.794zm5.114 3.397l.606 2.123.233-1.281a1 1 0 01.277-.528l2.22-2.22-3.336 1.906z"/></svg><svg viewBox="0 0 24 24" id="whatsapp" xmlns="http://www.w3.org/2000/svg"><path d="M17.6 6.32A7.851 7.851 0 0012 4a7.94 7.94 0 00-6.88 11.89L4 20l4.2-1.1a7.93 7.93 0 003.79 1 8 8 0 008-7.93 8 8 0 00-2.39-5.65zM12 18.53a6.58 6.58 0 01-3.36-.92l-.24-.15-2.49.66.66-2.43-.16-.25a6.6 6.6 0 0110.25-8.17 6.65 6.65 0 012 4.66 6.66 6.66 0 01-6.66 6.6zm3.61-4.94c-.2-.1-1.17-.58-1.35-.64-.18-.06-.32-.1-.45.1a9.004 9.004 0 01-.63.77c-.11.14-.23.15-.43 0a5.33 5.33 0 01-2.69-2.35c-.21-.35.2-.33.58-1.08a.38.38 0 000-.35c0-.1-.45-1.08-.61-1.47-.16-.39-.32-.33-.45-.34h-.39a.71.71 0 00-.53.25A2.19 2.19 0 008 10.17a3.82 3.82 0 00.81 2.05 8.89 8.89 0 003.39 3 3.85 3.85 0 002.38.5 1.999 1.999 0 001.33-.94 1.62 1.62 0 00.12-.94c-.09-.1-.22-.15-.42-.25z"/></svg></svg>